HIERARCHY
ROOT Hips
{
	OFFSET 0.00000 0.00000 0.00000
	CHANNELS 6 Xposition Yposition Zposition Zrotation Yrotation Xrotation 
	JOINT LHipJoint
	{
		OFFSET 0 0 0
		CHANNELS 3 Zrotation Yrotation Xrotation
		JOINT LeftHip
		{
			OFFSET 1.74857 -1.85566 0.69197
			CHANNELS 3 Zrotation Yrotation Xrotation
			JOINT LeftKnee
			{
				OFFSET 2.40003 -6.59403 0.00000
				CHANNELS 3 Zrotation Yrotation Xrotation
				JOINT LeftAnkle
				{
					OFFSET 2.82169 -7.75254 0.00000
					CHANNELS 3 Zrotation Yrotation Xrotation
					JOINT LeftToe
					{
						OFFSET 0.16466 -0.45240 2.26890
						CHANNELS 3 Zrotation Yrotation Xrotation
						End Site
						{
							OFFSET 0.00000 -0.00000 1.16486
						}
					}
				}
			}
		}
	}
	JOINT RHipJoint
	{
		OFFSET 0 0 0
		CHANNELS 3 Zrotation Yrotation Xrotation
		JOINT RightHip
		{
			OFFSET -1.64169 -1.85566 0.69197
			CHANNELS 3 Zrotation Yrotation Xrotation
			JOINT RightKnee
			{
				OFFSET -2.41814 -6.64379 0.00000
				CHANNELS 3 Zrotation Yrotation Xrotation
				JOINT RightAnkle
				{
					OFFSET -2.80588 -7.70911 0.00000
					CHANNELS 3 Zrotation Yrotation Xrotation
					JOINT RightToe
					{
						OFFSET -0.19098 -0.52472 2.25401
						CHANNELS 3 Zrotation Yrotation Xrotation
						End Site
						{
							OFFSET -0.00000 -0.00000 1.16333
						}
					}
				}
			}
		}
	}
	JOINT lowerback
	{
		OFFSET 0 0 0
		CHANNELS 3 Zrotation Yrotation Xrotation
		JOINT Chest
		{
			OFFSET -0.02828 2.14690 -0.11061
			CHANNELS 3 Zrotation Yrotation Xrotation
			JOINT Chest2
			{
				OFFSET -0.00167 2.15299 0.00759
				CHANNELS 3 Zrotation Yrotation Xrotation
				JOINT lowerneck
				{
					OFFSET 0 0 0
					CHANNELS 3 Zrotation Yrotation Xrotation
					JOINT Neck
					{
						OFFSET -0.09296 1.90118 0.07197
						CHANNELS 3 Zrotation Yrotation Xrotation
						JOINT Head
						{
							OFFSET 0.08490 1.89526 -0.24604
							CHANNELS 3 Zrotation Yrotation Xrotation
							End Site
							{
								OFFSET 0.03186 1.92109 -0.09483
							}
						}
					}
				}
				JOINT LeftCollar
				{
					OFFSET 0 0 0
					CHANNELS 3 Zrotation Yrotation Xrotation
					JOINT LeftShoulder
					{
						OFFSET 3.21569 1.44644 -0.03720
CHANNELS 3 Zrotation Xrotation Yrotation
						JOINT LeftElbow
						{
OFFSET 0 -5.476510 -0.000000
CHANNELS 3 Zrotation Xrotation Yrotation
							JOINT LeftWrist
							{
OFFSET 0 -3.090580 -0.000000
CHANNELS 3 Zrotation Xrotation Yrotation
								JOINT lhand
								{
									OFFSET 0 0 0
CHANNELS 3 Zrotation Xrotation Yrotation
									JOINT LFingers
									{
OFFSET 0 -0.771610 -0.000000
CHANNELS 3 Zrotation Xrotation Yrotation
										End Site
										{
OFFSET 0 -0.622090 -0.000000
										}
									}
								}
								JOINT LThumb
								{
OFFSET 0 0.000000 0.000000
CHANNELS 3 Zrotation Xrotation Yrotation
									End Site
									{
OFFSET 0 -0.631590 0.631590
									}
								}
							}
						}
					}
				}
				JOINT RightCollar
				{
					OFFSET 0 0 0
					CHANNELS 3 Zrotation Yrotation Xrotation
					JOINT RightShoulder
					{
						OFFSET -3.38693 1.28904 -0.07093
CHANNELS 3 Zrotation Xrotation Yrotation
						JOINT RightElbow
						{
OFFSET 0 -5.141820 -0.000000
CHANNELS 3 Zrotation Xrotation Yrotation
							JOINT RightWrist
							{
OFFSET 0 -3.355650 -0.000000
CHANNELS 3 Zrotation Xrotation Yrotation
								JOINT rhand
								{
									OFFSET 0 0 0
CHANNELS 3 Zrotation Xrotation Yrotation
									JOINT RFingers
									{
OFFSET 0 -0.801040 -0.000000
CHANNELS 3 Zrotation Xrotation Yrotation
										End Site
										{
OFFSET 0 -0.645820 -0.000000
										}
									}
								}
								JOINT RThumb
								{
OFFSET 0 0.000000 0.000000
CHANNELS 3 Zrotation Xrotation Yrotation
									End Site
									{
OFFSET 0 -0.655680 0.655680
									}
								}
							}
						}
					}
				}
			}
		}
	}
}
MOTION
Frames: 6
Frame Time: 0.008333333333333333
-1.570500 18.057000 -0.786100 -1.868000 11.181500 11.608800 0.000000 0.000000 0.000000 -6.756200 -19.266200 -20.175400 1.579400 7.928800 22.498100 0.395800 2.847900 -13.272000 1.524500 -7.796100 -22.096500 0.000000 0.000000 0.000000 27.372400 0.945400 -21.851100 -1.475800 -7.676200 21.734800 0.065000 -16.316400 -22.507100 -0.001600 0.261000 -0.717200 -4.654300 1.425400 12.341300 -0.606400 1.413300 6.567800 1.814100 0.617400 -0.120700 -6.972000 -4.709900 -5.004100 4.990500 -6.061000 4.236400 2.617800 -2.995800 2.666400 0.000000 0.000000 0.000000 24.681500 25.741000 -69.116800 79.177600 -59.552800 50.641600 27.839100 -36.590300 -38.265900 0.000000 0.000000 0.000000 -7.125000 0.000000 0.000000 -10.904100 71.449200 6.893500 0.000000 0.000000 0.000000 -37.829000 22.255300 25.717600 -147.230100 -43.152500 -106.735500 11.677400 -57.383600 -5.473900 0.000000 0.000000 0.000000 7.125000 0.000000 -0.000000 27.563100 24.148000 15.707800
-1.880481 17.958020 -0.830942 -1.902595 14.551958 10.706521 0.000000 0.000000 0.000000 -5.431107 -20.454784 -21.095005 1.766582 8.361877 23.818720 0.439214 1.085640 -12.959827 1.631417 -8.051973 -22.871977 0.000000 0.000000 0.000000 28.637071 -0.457677 -23.197855 -1.821986 -8.484813 24.196731 -0.161104 -16.404641 -24.731398 -0.006690 -0.528424 1.452180 -4.546995 1.657794 12.498025 -1.229750 1.714538 6.360508 1.061341 0.792820 -0.421363 -6.577295 -3.864731 -4.021640 6.259799 -5.120276 5.190252 3.041104 -2.500312 2.778396 0.000000 0.000000 0.000000 25.726835 26.826754 -68.485193 77.792063 -59.429243 49.447889 25.673187 -34.770909 -36.256756 0.000000 0.000000 0.000000 -7.125000 0.000000 0.000000 -11.606257 68.790772 6.654701 0.000000 0.000000 0.000000 -52.423464 13.712374 -3.765060 -153.751588 -37.452948 -110.961733 14.997730 -67.855975 -7.057448 0.000000 0.000000 0.000000 7.125000 0.000000 0.000000 29.302358 22.531483 18.313556
-2.067644 17.914458 -0.727648 -1.031544 15.776495 9.238104 0.000000 0.000000 0.000000 -6.363160 -20.280401 -18.836389 1.688826 8.185414 23.278677 0.539864 0.585097 -14.104256 2.005931 -8.878392 -25.415706 0.000000 0.000000 0.000000 28.435863 -1.353494 -22.035193 -2.008544 -8.883811 25.432538 -0.326643 -16.632134 -26.401325 -0.016641 -0.830030 2.281349 -4.078345 2.258089 11.558486 -2.293442 2.561868 5.560835 -0.396230 1.251978 -0.729217 -5.790977 -3.432777 -4.102327 6.827297 -4.790058 9.171225 2.805013 -2.255360 3.704062 0.000000 0.000000 0.000000 27.179363 28.261739 -66.856144 78.825216 -59.522809 50.337865 23.702010 -31.769364 -36.990221 0.000000 0.000000 0.000000 -7.125000 0.000000 0.000000 -14.978812 68.881461 8.647182 0.000000 0.000000 0.000000 -68.610636 3.111439 -31.827312 -151.050214 -39.974279 -109.270907 12.937595 -63.457666 -10.077378 0.000000 0.000000 0.000000 7.125000 0.000000 0.000000 27.391799 19.913431 18.661242
-2.172620 17.931854 -0.516194 -0.238163 17.701755 7.982146 0.000000 0.000000 0.000000 -7.487156 -19.214275 -15.572659 1.344484 7.340962 20.729625 0.427286 2.964425 -13.792361 1.561952 -7.886738 -22.370626 0.000000 0.000000 0.000000 28.254216 -2.487534 -19.309143 -1.844403 -8.534241 24.348814 -0.345988 -17.787708 -27.973049 -0.037671 -1.252484 3.443794 -2.565753 2.595864 9.688950 -2.984353 3.196115 4.422512 -1.971265 1.604701 -0.796467 -6.210556 -3.739776 -3.924029 7.645376 -5.414076 12.437925 3.091752 -2.504703 4.736826 0.000000 0.000000 0.000000 28.082792 28.737104 -65.515578 77.286957 -59.380367 49.013027 20.929628 -30.963851 -37.547155 0.000000 0.000000 0.000000 -7.125000 0.000000 0.000000 -19.131645 68.538292 10.955340 0.000000 0.000000 0.000000 -85.058657 -4.495998 -48.420936 -144.943775 -44.851891 -105.146878 12.676621 -55.149462 -9.595324 0.000000 0.000000 0.000000 7.125000 0.000000 0.000000 27.325926 20.363813 18.281670
-2.215178 17.999955 -0.265925 0.795081 20.849141 7.586240 0.000000 0.000000 0.000000 -8.663865 -18.339344 -13.071312 0.915059 6.094773 17.059652 0.221518 0.876174 -9.252392 0.952465 -6.212807 -17.403774 0.000000 0.000000 0.000000 27.885835 -4.033910 -16.331256 -1.439087 -7.584110 21.457963 -0.205496 -19.625007 -29.272559 -0.072294 -1.734269 4.771807 -1.456115 2.420849 8.187461 -3.419566 3.043700 2.675805 -3.004159 1.536164 -1.702974 -6.800329 -4.738097 -3.709561 8.734386 -6.996201 14.675947 3.433682 -3.212974 5.561411 0.000000 0.000000 0.000000 28.767014 30.803208 -63.880159 78.146031 -59.462349 49.752676 20.411134 -31.990355 -38.135505 0.000000 0.000000 0.000000 -7.125000 0.000000 0.000000 -20.525837 68.914218 11.950289 0.000000 0.000000 0.000000 -98.521374 -8.176364 -55.059102 -137.930304 -49.246596 -100.005869 17.350097 -44.594401 -7.687012 0.000000 0.000000 0.000000 7.125000 0.000000 0.000000 30.575297 21.796937 20.027095
-2.210543 18.065200 -0.075599 2.331344 24.020268 7.757031 0.000000 0.000000 0.000000 -10.625537 -17.015000 -12.389986 0.742476 5.504298 15.352672 0.098481 -0.246797 -5.839557 1.087039 -6.624738 -18.608965 0.000000 0.000000 0.000000 26.817188 -4.893166 -14.002108 -1.155161 -6.823676 19.194080 -0.155190 -21.425694 -31.285147 -0.165442 -2.619018 7.219885 -0.862316 2.183917 7.036740 -3.722537 2.760437 1.392919 -3.610088 1.384125 -2.359172 -7.486433 -5.910590 -3.543201 9.336331 -8.689227 15.476572 3.614196 -4.023294 5.980134 0.000000 0.000000 0.000000 28.655841 32.040754 -62.051981 76.848626 -59.336218 48.635974 17.690196 -32.268534 -40.417785 0.000000 0.000000 0.000000 -7.125000 0.000000 0.000000 -27.167222 70.043966 16.676621 0.000000 0.000000 0.000000 -109.498571 -10.094457 -56.497837 -123.748096 -55.216006 -88.755921 24.278534 -35.403827 -5.763660 0.000000 0.000000 0.000000 7.125000 0.000000 0.000000 34.977206 22.767860 23.363948
